<?xml version="1.0" encoding="us-ascii" standalone="no"?><svg xmlns="http://www.w3.org/2000/svg" xmlns:xlink="http://www.w3.org/1999/xlink" contentStyleType="text/css" height="480px" preserveAspectRatio="none" style="width:324px;height:480px;background:#FFFFFF;" version="1.1" viewBox="0 0 324 480" width="324px" zoomAndPan="magnify"><defs/><g><ellipse cx="163.5" cy="20" fill="#222222" rx="10" ry="10" style="stroke:#222222;stroke-width:1.0;"/><rect fill="#F1F1F1" height="33.9688" rx="12.5" ry="12.5" style="stroke:#181818;stroke-width:0.5;" width="287" x="20" y="50"/><text fill="#000000" font-family="sans-serif" font-size="12" lengthAdjust="spacing" textLength="267" x="30" y="71.1387">melakukan request API dengan pagination</text><rect fill="none" height="281.8823" style="stroke:#000000;stroke-width:1.5;" width="302" x="11" y="93.9688"/><path d="M146,93.9688 L146,103.2656 L136,113.2656 L11,113.2656 " fill="none" style="stroke:#000000;stroke-width:1.5;"/><text fill="#000000" font-family="sans-serif" font-size="14" lengthAdjust="spacing" textLength="125" x="14" y="107.9639">pagination iterator</text><rect fill="#F1F1F1" height="33.9688" rx="12.5" ry="12.5" style="stroke:#181818;stroke-width:0.5;" width="230" x="48.5" y="185.9761"/><text fill="#000000" font-family="sans-serif" font-size="12" lengthAdjust="spacing" textLength="210" x="58.5" y="207.1147">lakukan request halaman saat ini</text><rect fill="#F1F1F1" height="33.9688" rx="12.5" ry="12.5" style="stroke:#181818;stroke-width:0.5;" width="236" x="45.5" y="239.9448"/><text fill="#000000" font-family="sans-serif" font-size="12" lengthAdjust="spacing" textLength="216" x="55.5" y="261.0835">parse dan iterasi output response</text><rect fill="#F1F1F1" height="47.9375" rx="12.5" ry="12.5" style="stroke:#181818;stroke-width:0.5;" width="237" x="45" y="293.9136"/><text fill="#000000" font-family="sans-serif" font-size="12" lengthAdjust="spacing" textLength="193" x="55" y="315.0522">cek rel=next pada header link,</text><text fill="#000000" font-family="sans-serif" font-size="12" lengthAdjust="spacing" textLength="217" x="55" y="329.021">gunakan sebagai halaman saat ini</text><polygon fill="#F1F1F1" points="100.5,130.2656,226.5,130.2656,238.5,142.2656,226.5,154.2656,100.5,154.2656,88.5,142.2656,100.5,130.2656" style="stroke:#181818;stroke-width:0.5;"/><text fill="#000000" font-family="sans-serif" font-size="11" lengthAdjust="spacing" textLength="21" x="167.5" y="164.4761">ada</text><text fill="#000000" font-family="sans-serif" font-size="11" lengthAdjust="spacing" textLength="126" x="100.5" y="146.0737">ada halaman saat ini?</text><text fill="#000000" font-family="sans-serif" font-size="11" lengthAdjust="spacing" textLength="52" x="36.5" y="139.6714">tidak ada</text><rect fill="#F1F1F1" height="33.9688" rx="12.5" ry="12.5" style="stroke:#181818;stroke-width:0.5;" width="64" x="131.5" y="395.8511"/><text fill="#000000" font-family="sans-serif" font-size="12" lengthAdjust="spacing" textLength="44" x="141.5" y="416.9897">selesai</text><ellipse cx="163.5" cy="459.8198" fill="none" rx="10" ry="10" style="stroke:#222222;stroke-width:1.5;"/><line style="stroke:#222222;stroke-width:2.5;" x1="157.3128" x2="169.6872" y1="453.6326" y2="466.007"/><line style="stroke:#222222;stroke-width:2.5;" x1="169.6872" x2="157.3128" y1="453.6326" y2="466.007"/><line style="stroke:#181818;stroke-width:1.0;" x1="163.5" x2="163.5" y1="30" y2="50"/><polygon fill="#181818" points="159.5,40,163.5,50,167.5,40,163.5,44" style="stroke:#181818;stroke-width:1.0;"/><line style="stroke:#181818;stroke-width:1.0;" x1="163.5" x2="163.5" y1="219.9448" y2="239.9448"/><polygon fill="#181818" points="159.5,229.9448,163.5,239.9448,167.5,229.9448,163.5,233.9448" style="stroke:#181818;stroke-width:1.0;"/><line style="stroke:#181818;stroke-width:1.0;" x1="163.5" x2="163.5" y1="273.9136" y2="293.9136"/><polygon fill="#181818" points="159.5,283.9136,163.5,293.9136,167.5,283.9136,163.5,287.9136" style="stroke:#181818;stroke-width:1.0;"/><line style="stroke:#181818;stroke-width:1.0;" x1="163.5" x2="163.5" y1="154.2656" y2="185.9761"/><polygon fill="#181818" points="159.5,175.9761,163.5,185.9761,167.5,175.9761,163.5,179.9761" style="stroke:#181818;stroke-width:1.0;"/><line style="stroke:#181818;stroke-width:1.0;" x1="163.5" x2="163.5" y1="341.8511" y2="351.8511"/><line style="stroke:#181818;stroke-width:1.0;" x1="163.5" x2="294" y1="351.8511" y2="351.8511"/><polygon fill="#181818" points="290,255.5112,294,245.5112,298,255.5112,294,251.5112" style="stroke:#181818;stroke-width:1.0;"/><line style="stroke:#181818;stroke-width:1.0;" x1="294" x2="294" y1="142.2656" y2="351.8511"/><line style="stroke:#181818;stroke-width:1.0;" x1="294" x2="238.5" y1="142.2656" y2="142.2656"/><polygon fill="#181818" points="248.5,138.2656,238.5,142.2656,248.5,146.2656,244.5,142.2656" style="stroke:#181818;stroke-width:1.0;"/><line style="stroke:#181818;stroke-width:1.0;" x1="88.5" x2="33" y1="142.2656" y2="142.2656"/><polygon fill="#181818" points="29,241.5112,33,251.5112,37,241.5112,33,245.5112" style="stroke:#181818;stroke-width:1.0;"/><line style="stroke:#181818;stroke-width:1.0;" x1="33" x2="33" y1="142.2656" y2="363.8511"/><line style="stroke:#181818;stroke-width:1.0;" x1="33" x2="163.5" y1="363.8511" y2="363.8511"/><line style="stroke:#181818;stroke-width:1.0;" x1="163.5" x2="163.5" y1="363.8511" y2="395.8511"/><polygon fill="#181818" points="159.5,385.8511,163.5,395.8511,167.5,385.8511,163.5,389.8511" style="stroke:#181818;stroke-width:1.0;"/><line style="stroke:#181818;stroke-width:1.0;" x1="163.5" x2="163.5" y1="83.9688" y2="130.2656"/><polygon fill="#181818" points="159.5,120.2656,163.5,130.2656,167.5,120.2656,163.5,124.2656" style="stroke:#181818;stroke-width:1.0;"/><line style="stroke:#181818;stroke-width:1.0;" x1="163.5" x2="163.5" y1="429.8198" y2="449.8198"/><polygon fill="#181818" points="159.5,439.8198,163.5,449.8198,167.5,439.8198,163.5,443.8198" style="stroke:#181818;stroke-width:1.0;"/><!--SRC=[TP31YW8n44Jl-Oe-AkmNABBiqTj-W9VID6EJs3EcExYm-E_RCmWhWdqArLLvbPYZUKgR2rUKNg3K-DhPdBw-zvHPXv0c3A9m6NMRqXG1cSzFCebpWu-DVXF5tCvIcLR8e3CgBd670KwYyhaciMMrNgppR5xPhw7jlpNmnfJnO9hGs7tg7bcRHZL-yfwuX5ntoZyURUSsZCoDgcZvEEZG5JFM-8W1yWRBcX_lSSaej5I_nvyPLpQ4AuKb_G40]--></g></svg>