<?xml version="1.0" encoding="us-ascii" standalone="no"?><svg xmlns="http://www.w3.org/2000/svg" xmlns:xlink="http://www.w3.org/1999/xlink" contentStyleType="text/css" height="941px" preserveAspectRatio="none" style="width:256px;height:941px;background:#FFFFFF;" version="1.1" viewBox="0 0 256 941" width="256px" zoomAndPan="magnify"><defs/><g><ellipse cx="122" cy="20" fill="#222222" rx="10" ry="10" style="stroke:#222222;stroke-width:1.0;"/><rect fill="#F1F1F1" height="33.9688" rx="12.5" ry="12.5" style="stroke:#181818;stroke-width:0.5;" width="164" x="40" y="50"/><text fill="#000000" font-family="sans-serif" font-size="12" lengthAdjust="spacing" textLength="144" x="50" y="71.1387">melakukan request API</text><rect fill="none" height="742.9883" style="stroke:#000000;stroke-width:1.5;" width="234" x="11" y="93.9688"/><path d="M143,93.9688 L143,103.2656 L133,113.2656 L11,113.2656 " fill="none" style="stroke:#000000;stroke-width:1.5;"/><text fill="#000000" font-family="sans-serif" font-size="14" lengthAdjust="spacing" textLength="122" x="14" y="107.9639">library HTTP client</text><rect fill="#F1F1F1" height="47.9375" rx="12.5" ry="12.5" style="stroke:#181818;stroke-width:0.5;" width="147" x="48.5" y="180.2773"/><text fill="#000000" font-family="sans-serif" font-size="12" lengthAdjust="spacing" textLength="123" x="58.5" y="201.416">lakukan login untuk</text><text fill="#000000" font-family="sans-serif" font-size="12" lengthAdjust="spacing" textLength="127" x="58.5" y="215.3848">mendapatkan token</text><polygon fill="#F1F1F1" points="78,130.2656,166,130.2656,178,143.0703,166,155.875,78,155.875,66,143.0703,78,130.2656" style="stroke:#181818;stroke-width:0.5;"/><text fill="#000000" font-family="sans-serif" font-size="11" lengthAdjust="spacing" textLength="27" x="126" y="166.0854">tidak</text><text fill="#000000" font-family="sans-serif" font-size="11" lengthAdjust="spacing" textLength="80" x="78" y="140.4761">apakah sudah</text><text fill="#000000" font-family="sans-serif" font-size="11" lengthAdjust="spacing" textLength="88" x="78" y="153.2808">memiliki token?</text><text fill="#000000" font-family="sans-serif" font-size="11" lengthAdjust="spacing" textLength="13" x="178" y="140.4761">ya</text><polygon fill="#F1F1F1" points="122,248.2148,134,260.2148,122,272.2148,110,260.2148,122,248.2148" style="stroke:#181818;stroke-width:0.5;"/><rect fill="#F1F1F1" height="47.9375" rx="12.5" ry="12.5" style="stroke:#181818;stroke-width:0.5;" width="182" x="31" y="367.8359"/><text fill="#000000" font-family="sans-serif" font-size="12" lengthAdjust="spacing" textLength="162" x="41" y="388.9746">lakukan login ulang untuk</text><text fill="#000000" font-family="sans-serif" font-size="12" lengthAdjust="spacing" textLength="127" x="41" y="402.9434">mendapatkan token</text><polygon fill="#F1F1F1" points="70,292.2148,174,292.2148,186,317.8242,174,343.4336,70,343.4336,58,317.8242,70,292.2148" style="stroke:#181818;stroke-width:0.5;"/><text fill="#000000" font-family="sans-serif" font-size="11" lengthAdjust="spacing" textLength="13" x="126" y="353.644">ya</text><text fill="#000000" font-family="sans-serif" font-size="11" lengthAdjust="spacing" textLength="76" x="70" y="302.4253">apakah token</text><text fill="#000000" font-family="sans-serif" font-size="11" lengthAdjust="spacing" textLength="102" x="70" y="315.23">sudah kedaluarsa</text><text fill="#000000" font-family="sans-serif" font-size="11" lengthAdjust="spacing" textLength="104" x="70" y="328.0347">atau sebentar lagi</text><text fill="#000000" font-family="sans-serif" font-size="11" lengthAdjust="spacing" textLength="100" x="70" y="340.8394">akan kedaluarsa?</text><text fill="#000000" font-family="sans-serif" font-size="11" lengthAdjust="spacing" textLength="27" x="186" y="315.23">tidak</text><polygon fill="#F1F1F1" points="122,435.7734,134,447.7734,122,459.7734,110,447.7734,122,435.7734" style="stroke:#181818;stroke-width:0.5;"/><rect fill="#F1F1F1" height="47.9375" rx="12.5" ry="12.5" style="stroke:#181818;stroke-width:0.5;" width="150" x="47" y="479.7734"/><text fill="#000000" font-family="sans-serif" font-size="12" lengthAdjust="spacing" textLength="102" x="57" y="500.9121">lakukan request</text><text fill="#000000" font-family="sans-serif" font-size="12" lengthAdjust="spacing" textLength="130" x="57" y="514.8809">menggunakan token</text><rect fill="#F1F1F1" height="47.9375" rx="12.5" ry="12.5" style="stroke:#181818;stroke-width:0.5;" width="182" x="31" y="596.1133"/><text fill="#000000" font-family="sans-serif" font-size="12" lengthAdjust="spacing" textLength="162" x="41" y="617.252">lakukan login ulang untuk</text><text fill="#000000" font-family="sans-serif" font-size="12" lengthAdjust="spacing" textLength="127" x="41" y="631.2207">mendapatkan token</text><rect fill="#F1F1F1" height="47.9375" rx="12.5" ry="12.5" style="stroke:#181818;stroke-width:0.5;" width="163" x="40.5" y="679.0508"/><text fill="#000000" font-family="sans-serif" font-size="12" lengthAdjust="spacing" textLength="143" x="50.5" y="700.1895">ulangi request dengan</text><text fill="#000000" font-family="sans-serif" font-size="12" lengthAdjust="spacing" textLength="103" x="50.5" y="714.1582">token yang baru</text><polygon fill="#F1F1F1" points="47,547.7109,197,547.7109,209,559.7109,197,571.7109,47,571.7109,35,559.7109,47,547.7109" style="stroke:#181818;stroke-width:0.5;"/><text fill="#000000" font-family="sans-serif" font-size="11" lengthAdjust="spacing" textLength="13" x="126" y="581.9214">ya</text><text fill="#000000" font-family="sans-serif" font-size="11" lengthAdjust="spacing" textLength="150" x="47" y="563.519">apakah responsenya 401?</text><text fill="#000000" font-family="sans-serif" font-size="11" lengthAdjust="spacing" textLength="27" x="209" y="557.1167">tidak</text><polygon fill="#F1F1F1" points="122,746.9883,134,758.9883,122,770.9883,110,758.9883,122,746.9883" style="stroke:#181818;stroke-width:0.5;"/><rect fill="#F1F1F1" height="33.9688" rx="12.5" ry="12.5" style="stroke:#181818;stroke-width:0.5;" width="144" x="50" y="790.9883"/><text fill="#000000" font-family="sans-serif" font-size="12" lengthAdjust="spacing" textLength="124" x="60" y="812.127">return responsenya</text><rect fill="#F1F1F1" height="33.9688" rx="12.5" ry="12.5" style="stroke:#181818;stroke-width:0.5;" width="221" x="11.5" y="856.957"/><text fill="#000000" font-family="sans-serif" font-size="12" lengthAdjust="spacing" textLength="201" x="21.5" y="878.0957">mendapatkan response dari API</text><ellipse cx="122" cy="920.9258" fill="none" rx="10" ry="10" style="stroke:#222222;stroke-width:1.5;"/><line style="stroke:#222222;stroke-width:2.5;" x1="115.8128" x2="128.1872" y1="914.7386" y2="927.113"/><line style="stroke:#222222;stroke-width:2.5;" x1="128.1872" x2="115.8128" y1="914.7386" y2="927.113"/><line style="stroke:#181818;stroke-width:1.0;" x1="122" x2="122" y1="30" y2="50"/><polygon fill="#181818" points="118,40,122,50,126,40,122,44" style="stroke:#181818;stroke-width:1.0;"/><line style="stroke:#181818;stroke-width:1.0;" x1="122" x2="122" y1="155.875" y2="180.2773"/><polygon fill="#181818" points="118,170.2773,122,180.2773,126,170.2773,122,174.2773" style="stroke:#181818;stroke-width:1.0;"/><line style="stroke:#181818;stroke-width:1.0;" x1="178" x2="205.5" y1="143.0703" y2="143.0703"/><polygon fill="#181818" points="201.5,193.8438,205.5,203.8438,209.5,193.8438,205.5,197.8438" style="stroke:#181818;stroke-width:1.0;"/><line style="stroke:#181818;stroke-width:1.0;" x1="205.5" x2="205.5" y1="143.0703" y2="260.2148"/><line style="stroke:#181818;stroke-width:1.0;" x1="205.5" x2="134" y1="260.2148" y2="260.2148"/><polygon fill="#181818" points="144,256.2148,134,260.2148,144,264.2148,140,260.2148" style="stroke:#181818;stroke-width:1.0;"/><line style="stroke:#181818;stroke-width:1.0;" x1="122" x2="122" y1="228.2148" y2="248.2148"/><polygon fill="#181818" points="118,238.2148,122,248.2148,126,238.2148,122,242.2148" style="stroke:#181818;stroke-width:1.0;"/><line style="stroke:#181818;stroke-width:1.0;" x1="122" x2="122" y1="343.4336" y2="367.8359"/><polygon fill="#181818" points="118,357.8359,122,367.8359,126,357.8359,122,361.8359" style="stroke:#181818;stroke-width:1.0;"/><line style="stroke:#181818;stroke-width:1.0;" x1="186" x2="223" y1="317.8242" y2="317.8242"/><polygon fill="#181818" points="219,375,223,385,227,375,223,379" style="stroke:#181818;stroke-width:1.0;"/><line style="stroke:#181818;stroke-width:1.0;" x1="223" x2="223" y1="317.8242" y2="447.7734"/><line style="stroke:#181818;stroke-width:1.0;" x1="223" x2="134" y1="447.7734" y2="447.7734"/><polygon fill="#181818" points="144,443.7734,134,447.7734,144,451.7734,140,447.7734" style="stroke:#181818;stroke-width:1.0;"/><line style="stroke:#181818;stroke-width:1.0;" x1="122" x2="122" y1="415.7734" y2="435.7734"/><polygon fill="#181818" points="118,425.7734,122,435.7734,126,425.7734,122,429.7734" style="stroke:#181818;stroke-width:1.0;"/><line style="stroke:#181818;stroke-width:1.0;" x1="122" x2="122" y1="272.2148" y2="292.2148"/><polygon fill="#181818" points="118,282.2148,122,292.2148,126,282.2148,122,286.2148" style="stroke:#181818;stroke-width:1.0;"/><line style="stroke:#181818;stroke-width:1.0;" x1="122" x2="122" y1="459.7734" y2="479.7734"/><polygon fill="#181818" points="118,469.7734,122,479.7734,126,469.7734,122,473.7734" style="stroke:#181818;stroke-width:1.0;"/><line style="stroke:#181818;stroke-width:1.0;" x1="122" x2="122" y1="644.0508" y2="679.0508"/><polygon fill="#181818" points="118,669.0508,122,679.0508,126,669.0508,122,673.0508" style="stroke:#181818;stroke-width:1.0;"/><line style="stroke:#181818;stroke-width:1.0;" x1="122" x2="122" y1="571.7109" y2="596.1133"/><polygon fill="#181818" points="118,586.1133,122,596.1133,126,586.1133,122,590.1133" style="stroke:#181818;stroke-width:1.0;"/><line style="stroke:#181818;stroke-width:1.0;" x1="209" x2="223" y1="559.7109" y2="559.7109"/><polygon fill="#181818" points="219,651.5508,223,661.5508,227,651.5508,223,655.5508" style="stroke:#181818;stroke-width:1.0;"/><line style="stroke:#181818;stroke-width:1.0;" x1="223" x2="223" y1="559.7109" y2="758.9883"/><line style="stroke:#181818;stroke-width:1.0;" x1="223" x2="134" y1="758.9883" y2="758.9883"/><polygon fill="#181818" points="144,754.9883,134,758.9883,144,762.9883,140,758.9883" style="stroke:#181818;stroke-width:1.0;"/><line style="stroke:#181818;stroke-width:1.0;" x1="122" x2="122" y1="726.9883" y2="746.9883"/><polygon fill="#181818" points="118,736.9883,122,746.9883,126,736.9883,122,740.9883" style="stroke:#181818;stroke-width:1.0;"/><line style="stroke:#181818;stroke-width:1.0;" x1="122" x2="122" y1="527.7109" y2="547.7109"/><polygon fill="#181818" points="118,537.7109,122,547.7109,126,537.7109,122,541.7109" style="stroke:#181818;stroke-width:1.0;"/><line style="stroke:#181818;stroke-width:1.0;" x1="122" x2="122" y1="770.9883" y2="790.9883"/><polygon fill="#181818" points="118,780.9883,122,790.9883,126,780.9883,122,784.9883" style="stroke:#181818;stroke-width:1.0;"/><line style="stroke:#181818;stroke-width:1.0;" x1="122" x2="122" y1="83.9688" y2="130.2656"/><polygon fill="#181818" points="118,120.2656,122,130.2656,126,120.2656,122,124.2656" style="stroke:#181818;stroke-width:1.0;"/><line style="stroke:#181818;stroke-width:1.0;" x1="122" x2="122" y1="824.957" y2="856.957"/><polygon fill="#181818" points="118,846.957,122,856.957,126,846.957,122,850.957" style="stroke:#181818;stroke-width:1.0;"/><line style="stroke:#181818;stroke-width:1.0;" x1="122" x2="122" y1="890.9258" y2="910.9258"/><polygon fill="#181818" points="118,900.9258,122,910.9258,126,900.9258,122,904.9258" style="stroke:#181818;stroke-width:1.0;"/><!--SRC=[hP8_RuGm3CNtV0gFtDPAdM2ekhNR3JUocCO7LeAX-JEWgj-z8GSSGXrQgHxpdfz_Zkm3kg1KsPD54mqAEFg8v0EydDygfSOaS-11m7BZq4tmUhcSuTqoIO1F1Qdu2WMEQB037pLsjVJKisN340P3ydo2q9504LYZEUMUkSfrf1rQ5eWIejd4daIdq33hEQNA4bbFK4nuIqaUlgeZHBRNabd0a4ORqNci1GD6yDGaT7HWiUNqDW-ucpRMTSHFe1Qb_GlkRkyTSNduSRNaj6syKIqvn_KS-N4GJp8XF3qy_ZDnxiv-tav19oYKJSvkcER81btynQQEGdIo9w_KLxwwEyCgWaR7o_KbMNq3]--></g></svg>